#!OML:ASF E:\motion texture\Top Level 1\Subject 1\Session 1\male.ASF
:FULLY-SPECIFIED
:DEGREES
322
root -21.4597 18.0058 4.10684 485.222 -79.9047 -479.07
lowerback -0.266929 -3.30157 6.6154
upperback -3.20063 -4.3937 5.74314
thorax -3.20508 -2.38284 2.37407
lowerneck -6.01849 -11.9718 -12.7898
upperneck 15.3962 -16.1232 5.89823
head 7.22434 -8.17339 2.42223
rclavicle -2.25621e-014 -2.46493e-014
rhumerus -27.0825 18.7392 -95.2016
rradius 41.8707
rwrist 11.3849
rhand -10.5793 -21.8146
rfingers 7.12502
rthumb 15.4257 -51.219
lclavicle -2.25621e-014 -2.46493e-014
lhumerus -37.7456 14.0985 72.3325
lradius 34.5941
lwrist -25.2741
lhand -6.17129 16.8857
lfingers 7.12502
lthumb 19.6677 45.9108
rfemur -2.83665 9.13681 34.8135
rtibia 19.0366
rfoot -12.2572 -7.11727
rtoes 9.70031
lfemur -30.3799 3.82923 -4.34355
ltibia 35.4491
lfoot -9.57723 6.44776
ltoes -18.6487
323
root -21.5816 17.9969 4.11575 485.866 -79.8035 -479.513
lowerback -0.371426 -3.05982 6.85365
upperback -3.19669 -4.07938 5.66809
thorax -3.16186 -2.23231 2.14849
lowerneck -6.32786 -11.6927 -12.5396
upperneck 15.3961 -15.7024 5.83
head 7.21013 -7.95383 2.40089
rclavicle -9.22485e-015 1.11319e-014
rhumerus -27.1292 23.164 -96.6356
rradius 43.8497
rwrist 14.4265
rhand -10.254 -19.8128
rfingers 7.12502
rthumb 15.739 -49.1928
lclavicle -9.22485e-015 1.11319e-014
lhumerus -37.3343 14.3048 72.2725
lradius 34.3178
lwrist -25.3115
lhand -7.04937 17.2228
lfingers 7.12502
lthumb 18.8233 46.3321
rfemur -2.57003 9.21448 34.8015
rtibia 18.976
rfoot -12.4569 -6.97422
rtoes 9.2792
lfemur -30.3553 3.19941 -4.12756
ltibia 32.425
lfoot -8.98346 6.76193
ltoes -18.8866
324
root -21.7047 17.9859 4.12544 486.653 -79.7112 -480.111
lowerback -0.471486 -2.80759 7.0587
upperback -3.19077 -3.75144 5.58754
thorax -3.1135 -2.07382 1.93584
lowerneck -6.62693 -11.4198 -12.2804
upperneck 15.3876 -15.2941 5.76001
head 7.19313 -7.74019 2.37662
rclavicle -1.53313e-014 -7.95139e-015
rhumerus -27.1922 27.0884 -97.7633
rradius 46.0214
rwrist 17.2378
rhand -10.2303 -17.6643
rfingers 7.12502
rthumb 15.7618 -47.0425
lclavicle -1.53313e-014 -7.95139e-015
lhumerus -36.9227 14.5245 72.2339
lradius 34.0335
lwrist -25.3456
lhand -7.93441 17.5299
lfingers 7.12502
lthumb 17.972 46.7195
rfemur -2.29825 9.28871 34.7578
rtibia 18.9374
rfoot -12.6701 -6.82715
rtoes 8.80825
lfemur -30.2409 2.5128 -3.90957
ltibia 29.3255
lfoot -8.32104 7.12448
ltoes -19.0021
325
root -21.83 17.9732 4.13605 487.425 -79.6516 -480.724
lowerback -0.550649 -2.55727 7.23001
upperback -3.17334 -3.42461 5.49715
thorax -3.06021 -1.91432 1.73297
lowerneck -6.92457 -11.1512 -12.0145
upperneck 15.3612 -14.8965 5.70698
head 7.17316 -7.52988 2.35551
rclavicle 9.07266e-015 -8.26944e-014
rhumerus -27.2048 30.5106 -98.6052
rradius 48.2998
rwrist 19.5716
rhand -10.4535 -15.4529
rfingers 7.12502
rthumb 15.5469 -44.848
lclavicle 9.07266e-015 -8.26944e-014
lhumerus -36.4974 14.7559 72.222
lradius 33.7391
lwrist -25.3664
lhand -8.77404 17.839
lfingers 7.12502
lthumb 17.1639 47.1009
rfemur -1.99114 9.33758 34.6769
rtibia 18.9061
rfoot -12.8902 -6.69127
rtoes 8.30514
lfemur -30.0307 1.73693 -3.7026
ltibia 26.1942
lfoot -7.66109 7.56402
ltoes -18.9648
326
root -21.957 17.9586 4.14673 488.198 -79.6161 -481.355
lowerback -0.619719 -2.30871 7.36597
upperback -3.14801 -3.09969 5.40011
thorax -2.99979 -1.75422 1.54356
lowerneck -7.21786 -10.882 -11.7478
upperneck 15.3147 -14.5045 5.68385
head 7.14995 -7.32001 2.34331
rclavicle 2.36756e-014 -3.4191e-014
rhumerus -27.1374 33.4892 -99.1991
rradius 50.6302
rwrist 21.2425
rhand -10.8039 -13.3891
rfingers 7.12502
rthumb 15.2094 -42.81
lclavicle 2.36756e-014 -3.4191e-014
lhumerus -36.0605 15.0096 72.2294
lradius 33.446
lwrist -25.3819
lhand -9.53558 18.1655
lfingers 7.12502
lthumb 16.4308 47.4896
rfemur -1.67825 9.37392 34.5693
rtibia 18.9025
rfoot -13.1265 -6.57249
rtoes 7.80299
lfemur -29.7639 0.906503 -3.50096
ltibia 23.0941
lfoot -7.07066 8.0928
ltoes -18.8113
327
root -22.0862 17.9422 4.15732 488.893 -79.5968 -481.923
lowerback -0.678753 -2.06618 7.48154
upperback -3.11766 -2.7822 5.30166
thorax -2.93644 -1.59689 1.3652
lowerneck -7.49803 -10.6096 -11.4844
upperneck 15.2455 -14.1153 5.69215
head 7.12107 -7.1095 2.34202
rclavicle -2.81696e-014 1.27222e-014
rhumerus -26.9861 36.1031 -99.5805
rradius 52.9571
rwrist 22.2335
rhand -11.1514 -11.6153
rfingers 7.12502
rthumb 14.8746 -41.0614
lclavicle -2.81696e-014 1.27222e-014
lhumerus -35.6311 15.2757 72.2561
lradius 33.1718
lwrist -25.38
lhand -10.2095 18.4934
lfingers 7.12502
lthumb 15.7819 47.87
rfemur -1.35931 9.39558 34.4541
rtibia 18.9289
rfoot -13.3728 -6.47218
rtoes 7.28854
lfemur -29.4554 0.050147 -3.29985
ltibia 20.0841
lfoot -6.60965 8.70499
ltoes -18.5258
328
root -22.2172 17.9241 4.16799 489.533 -79.5825 -482.448
lowerback -0.729414 -1.82671 7.58854
upperback -3.08557 -2.46805 5.2
thorax -2.87351 -1.44079 1.18943
lowerneck -7.73843 -10.332 -11.2342
upperneck 15.1368 -13.7312 5.75516
head 7.07891 -6.89896 2.36185
rclavicle 3.66835e-014 -3.97569e-014
rhumerus -26.7582 38.4098 -99.7755
rradius 55.2699
rwrist 22.6095
rhand -11.3455 -10.2824
rfingers 7.12502
rthumb 14.6876 -39.7422
lclavicle 3.66835e-014 -3.97569e-014
lhumerus -35.2178 15.5449 72.2989
lradius 32.9289
lwrist -25.3617
lhand -10.7782 18.8389
lfingers 7.12502
lthumb 15.2342 48.258
rfemur -1.04905 9.40654 34.3379
rtibia 19.0014
rfoot -13.626 -6.37872
rtoes 6.75066
lfemur -29.1375 -0.775153 -3.11123
ltibia 17.2466
lfoot -6.29315 9.3599
ltoes -18.2445
